<mxfile host="app.diagrams.net" agent="Mozilla/5.0 (Windows NT 10.0; Win64; x64; rv:140.0) Gecko/20100101 Firefox/140.0" version="28.0.6">
  <diagram name="Page-1" id="lhTfg0rswQ8P2bYE6G2S">
    <mxGraphModel dx="1042" dy="535" grid="1" gridSize="10" guides="1" tooltips="1" connect="1" arrows="1" fold="1" page="1" pageScale="1" pageWidth="850" pageHeight="1100" math="0" shadow="0">
      <root>
        <mxCell id="0" />
        <mxCell id="1" parent="0" />
        <mxCell id="-8NUK9hQ9mEakbZkPeLY-1" value="Return address" style="rounded=0;whiteSpace=wrap;html=1;fillColor=#f8cecc;gradientColor=#ea6b66;strokeColor=#b85450;" parent="1" vertex="1">
          <mxGeometry x="120" y="400" width="120" height="40" as="geometry" />
        </mxCell>
        <mxCell id="-8NUK9hQ9mEakbZkPeLY-2" value="Local vars" style="rounded=0;whiteSpace=wrap;html=1;fillColor=#d5e8d4;strokeColor=#82b366;" parent="1" vertex="1">
          <mxGeometry x="120" y="440" width="120" height="80" as="geometry" />
        </mxCell>
        <mxCell id="-8NUK9hQ9mEakbZkPeLY-3" value="Buffer" style="rounded=0;whiteSpace=wrap;html=1;fillColor=#ffcd28;gradientColor=#ffa500;strokeColor=#d79b00;" parent="1" vertex="1">
          <mxGeometry x="120" y="520" width="120" height="40" as="geometry" />
        </mxCell>
        <mxCell id="-8NUK9hQ9mEakbZkPeLY-4" value="..." style="rounded=0;whiteSpace=wrap;html=1;" parent="1" vertex="1">
          <mxGeometry x="120" y="280" width="120" height="120" as="geometry" />
        </mxCell>
        <mxCell id="-8NUK9hQ9mEakbZkPeLY-5" value="" style="shape=curlyBracket;whiteSpace=wrap;html=1;rounded=1;flipH=1;labelPosition=right;verticalLabelPosition=middle;align=left;verticalAlign=middle;" parent="1" vertex="1">
          <mxGeometry x="240" y="400" width="20" height="160" as="geometry" />
        </mxCell>
        <mxCell id="-8NUK9hQ9mEakbZkPeLY-6" value="Current frame" style="text;html=1;align=center;verticalAlign=middle;whiteSpace=wrap;rounded=0;" parent="1" vertex="1">
          <mxGeometry x="270" y="465" width="60" height="30" as="geometry" />
        </mxCell>
        <mxCell id="-8NUK9hQ9mEakbZkPeLY-7" value="Older frames" style="text;html=1;align=center;verticalAlign=middle;whiteSpace=wrap;rounded=0;" parent="1" vertex="1">
          <mxGeometry x="280" y="330" width="60" height="30" as="geometry" />
        </mxCell>
        <mxCell id="-8NUK9hQ9mEakbZkPeLY-8" value="" style="shape=curlyBracket;whiteSpace=wrap;html=1;rounded=1;flipH=1;labelPosition=right;verticalLabelPosition=middle;align=left;verticalAlign=middle;" parent="1" vertex="1">
          <mxGeometry x="240" y="280" width="20" height="120" as="geometry" />
        </mxCell>
        <mxCell id="-8NUK9hQ9mEakbZkPeLY-10" value="" style="shape=document;whiteSpace=wrap;html=1;boundedLbl=1;direction=west;" parent="1" vertex="1">
          <mxGeometry x="120" y="260" width="120" height="20" as="geometry" />
        </mxCell>
        <mxCell id="-8NUK9hQ9mEakbZkPeLY-11" value="" style="shape=document;whiteSpace=wrap;html=1;boundedLbl=1;" parent="1" vertex="1">
          <mxGeometry x="120" y="231" width="120" height="20" as="geometry" />
        </mxCell>
        <mxCell id="-8NUK9hQ9mEakbZkPeLY-12" value="&lt;div&gt;&lt;font face=&quot;Courier New&quot;&gt;inst3&lt;/font&gt;&lt;/div&gt;&lt;div&gt;&lt;font face=&quot;Courier New&quot;&gt;inst4&lt;/font&gt;&lt;/div&gt;&lt;div&gt;&lt;font face=&quot;Courier New&quot;&gt;ret&lt;/font&gt;&lt;/div&gt;" style="rounded=0;whiteSpace=wrap;html=1;fillColor=#dae8fc;gradientColor=#7ea6e0;strokeColor=#6c8ebf;" parent="1" vertex="1">
          <mxGeometry x="120" y="171" width="120" height="60" as="geometry" />
        </mxCell>
        <mxCell id="-8NUK9hQ9mEakbZkPeLY-14" value="" style="shape=document;whiteSpace=wrap;html=1;boundedLbl=1;direction=west;" parent="1" vertex="1">
          <mxGeometry x="120" y="151" width="120" height="20" as="geometry" />
        </mxCell>
        <mxCell id="-8NUK9hQ9mEakbZkPeLY-15" value="" style="shape=document;whiteSpace=wrap;html=1;boundedLbl=1;" parent="1" vertex="1">
          <mxGeometry x="120" y="120" width="120" height="20" as="geometry" />
        </mxCell>
        <mxCell id="-8NUK9hQ9mEakbZkPeLY-16" value="&lt;div&gt;&lt;font face=&quot;Courier New&quot;&gt;inst1&lt;/font&gt;&lt;/div&gt;&lt;div&gt;&lt;font face=&quot;Courier New&quot;&gt;inst2&lt;/font&gt;&lt;/div&gt;&lt;div&gt;&lt;font face=&quot;Courier New&quot;&gt;ret&lt;/font&gt;&lt;/div&gt;" style="rounded=0;whiteSpace=wrap;html=1;fillColor=#f5f5f5;gradientColor=#b3b3b3;strokeColor=#666666;" parent="1" vertex="1">
          <mxGeometry x="120" y="60" width="120" height="60" as="geometry" />
        </mxCell>
        <mxCell id="-8NUK9hQ9mEakbZkPeLY-17" value="" style="shape=document;whiteSpace=wrap;html=1;boundedLbl=1;direction=west;" parent="1" vertex="1">
          <mxGeometry x="120" y="40" width="120" height="20" as="geometry" />
        </mxCell>
        <mxCell id="-8NUK9hQ9mEakbZkPeLY-18" value="" style="shape=curlyBracket;whiteSpace=wrap;html=1;rounded=1;flipH=1;labelPosition=right;verticalLabelPosition=middle;align=left;verticalAlign=middle;" parent="1" vertex="1">
          <mxGeometry x="240" y="170" width="20" height="60" as="geometry" />
        </mxCell>
        <mxCell id="-8NUK9hQ9mEakbZkPeLY-19" value="" style="shape=curlyBracket;whiteSpace=wrap;html=1;rounded=1;flipH=1;labelPosition=right;verticalLabelPosition=middle;align=left;verticalAlign=middle;" parent="1" vertex="1">
          <mxGeometry x="240" y="60" width="20" height="60" as="geometry" />
        </mxCell>
        <mxCell id="-8NUK9hQ9mEakbZkPeLY-20" value="Gadget 1" style="text;html=1;align=center;verticalAlign=middle;whiteSpace=wrap;rounded=0;" parent="1" vertex="1">
          <mxGeometry x="270" y="75" width="60" height="30" as="geometry" />
        </mxCell>
        <mxCell id="-8NUK9hQ9mEakbZkPeLY-21" value="Gadget 2" style="text;html=1;align=center;verticalAlign=middle;whiteSpace=wrap;rounded=0;" parent="1" vertex="1">
          <mxGeometry x="270" y="185" width="60" height="30" as="geometry" />
        </mxCell>
        <mxCell id="-8NUK9hQ9mEakbZkPeLY-22" value="Return address 2" style="rounded=0;whiteSpace=wrap;html=1;fillColor=#ffcd28;gradientColor=#ffa500;strokeColor=#d79b00;" parent="1" vertex="1">
          <mxGeometry x="470" y="360" width="120" height="40" as="geometry" />
        </mxCell>
        <mxCell id="-8NUK9hQ9mEakbZkPeLY-23" value="..." style="rounded=0;whiteSpace=wrap;html=1;fillColor=#ffcd28;strokeColor=#d79b00;gradientColor=#ffa500;" parent="1" vertex="1">
          <mxGeometry x="470" y="440" width="120" height="80" as="geometry" />
        </mxCell>
        <mxCell id="-8NUK9hQ9mEakbZkPeLY-24" value="Buffer" style="rounded=0;whiteSpace=wrap;html=1;fillColor=#ffcd28;gradientColor=#ffa500;strokeColor=#d79b00;" parent="1" vertex="1">
          <mxGeometry x="470" y="520" width="120" height="40" as="geometry" />
        </mxCell>
        <mxCell id="-8NUK9hQ9mEakbZkPeLY-25" value="..." style="rounded=0;whiteSpace=wrap;html=1;" parent="1" vertex="1">
          <mxGeometry x="470" y="280" width="120" height="40" as="geometry" />
        </mxCell>
        <mxCell id="-8NUK9hQ9mEakbZkPeLY-30" value="" style="shape=document;whiteSpace=wrap;html=1;boundedLbl=1;direction=west;" parent="1" vertex="1">
          <mxGeometry x="470" y="260" width="120" height="20" as="geometry" />
        </mxCell>
        <mxCell id="-8NUK9hQ9mEakbZkPeLY-31" value="" style="shape=document;whiteSpace=wrap;html=1;boundedLbl=1;" parent="1" vertex="1">
          <mxGeometry x="470" y="231" width="120" height="20" as="geometry" />
        </mxCell>
        <mxCell id="-8NUK9hQ9mEakbZkPeLY-32" value="&lt;div&gt;&lt;font face=&quot;Courier New&quot;&gt;inst3&lt;/font&gt;&lt;/div&gt;&lt;div&gt;&lt;font face=&quot;Courier New&quot;&gt;inst4&lt;/font&gt;&lt;/div&gt;&lt;div&gt;&lt;font face=&quot;Courier New&quot;&gt;ret&lt;/font&gt;&lt;/div&gt;" style="rounded=0;whiteSpace=wrap;html=1;fillColor=#dae8fc;gradientColor=#7ea6e0;strokeColor=#6c8ebf;" parent="1" vertex="1">
          <mxGeometry x="470" y="171" width="120" height="60" as="geometry" />
        </mxCell>
        <mxCell id="-8NUK9hQ9mEakbZkPeLY-33" value="" style="shape=document;whiteSpace=wrap;html=1;boundedLbl=1;direction=west;" parent="1" vertex="1">
          <mxGeometry x="470" y="151" width="120" height="20" as="geometry" />
        </mxCell>
        <mxCell id="-8NUK9hQ9mEakbZkPeLY-34" value="" style="shape=document;whiteSpace=wrap;html=1;boundedLbl=1;" parent="1" vertex="1">
          <mxGeometry x="470" y="120" width="120" height="20" as="geometry" />
        </mxCell>
        <mxCell id="-8NUK9hQ9mEakbZkPeLY-35" value="&lt;div&gt;&lt;font face=&quot;Courier New&quot;&gt;inst1&lt;/font&gt;&lt;/div&gt;&lt;div&gt;&lt;font face=&quot;Courier New&quot;&gt;inst2&lt;/font&gt;&lt;/div&gt;&lt;div&gt;&lt;font face=&quot;Courier New&quot;&gt;ret&lt;/font&gt;&lt;/div&gt;" style="rounded=0;whiteSpace=wrap;html=1;fillColor=#f5f5f5;gradientColor=#b3b3b3;strokeColor=#666666;" parent="1" vertex="1">
          <mxGeometry x="470" y="60" width="120" height="60" as="geometry" />
        </mxCell>
        <mxCell id="-8NUK9hQ9mEakbZkPeLY-36" value="" style="shape=document;whiteSpace=wrap;html=1;boundedLbl=1;direction=west;" parent="1" vertex="1">
          <mxGeometry x="470" y="40" width="120" height="20" as="geometry" />
        </mxCell>
        <mxCell id="-8NUK9hQ9mEakbZkPeLY-41" value="" style="shape=flexArrow;endArrow=classic;html=1;rounded=0;" parent="1" edge="1">
          <mxGeometry width="50" height="50" relative="1" as="geometry">
            <mxPoint x="310" y="420" as="sourcePoint" />
            <mxPoint x="430" y="420" as="targetPoint" />
          </mxGeometry>
        </mxCell>
        <mxCell id="-8NUK9hQ9mEakbZkPeLY-42" value="&lt;font face=&quot;Courier New&quot;&gt;strcpy(buffer, shellcode)&lt;/font&gt;" style="text;html=1;align=center;verticalAlign=middle;whiteSpace=wrap;rounded=0;" parent="1" vertex="1">
          <mxGeometry x="330" y="430" width="60" height="30" as="geometry" />
        </mxCell>
        <mxCell id="-8NUK9hQ9mEakbZkPeLY-43" value="Return address 1" style="rounded=0;whiteSpace=wrap;html=1;fillColor=#ffcd28;gradientColor=#ffa500;strokeColor=#d79b00;" parent="1" vertex="1">
          <mxGeometry x="470" y="400" width="120" height="40" as="geometry" />
        </mxCell>
        <mxCell id="-8NUK9hQ9mEakbZkPeLY-45" value="" style="curved=1;endArrow=classic;html=1;rounded=0;entryX=0;entryY=0.25;entryDx=0;entryDy=0;" parent="1" target="-8NUK9hQ9mEakbZkPeLY-32" edge="1">
          <mxGeometry width="50" height="50" relative="1" as="geometry">
            <mxPoint x="470" y="380" as="sourcePoint" />
            <mxPoint x="425" y="68.5" as="targetPoint" />
            <Array as="points">
              <mxPoint x="430" y="330" />
              <mxPoint x="430" y="250" />
            </Array>
          </mxGeometry>
        </mxCell>
        <mxCell id="-8NUK9hQ9mEakbZkPeLY-46" value="" style="curved=1;endArrow=classic;html=1;rounded=0;exitX=1;exitY=0.75;exitDx=0;exitDy=0;entryX=1;entryY=0.25;entryDx=0;entryDy=0;" parent="1" source="-8NUK9hQ9mEakbZkPeLY-35" target="-8NUK9hQ9mEakbZkPeLY-22" edge="1">
          <mxGeometry width="50" height="50" relative="1" as="geometry">
            <mxPoint x="490" y="505" as="sourcePoint" />
            <mxPoint x="490" y="160" as="targetPoint" />
            <Array as="points">
              <mxPoint x="730" y="240" />
            </Array>
          </mxGeometry>
        </mxCell>
        <mxCell id="-8NUK9hQ9mEakbZkPeLY-47" value="" style="curved=1;endArrow=classic;html=1;rounded=0;exitX=0;exitY=0.5;exitDx=0;exitDy=0;entryX=0;entryY=0.25;entryDx=0;entryDy=0;" parent="1" source="-8NUK9hQ9mEakbZkPeLY-43" target="-8NUK9hQ9mEakbZkPeLY-35" edge="1">
          <mxGeometry width="50" height="50" relative="1" as="geometry">
            <mxPoint x="470" y="635" as="sourcePoint" />
            <mxPoint x="470" y="100" as="targetPoint" />
            <Array as="points">
              <mxPoint x="420" y="370" />
              <mxPoint x="400" y="230" />
            </Array>
          </mxGeometry>
        </mxCell>
        <mxCell id="-8NUK9hQ9mEakbZkPeLY-48" value="1" style="text;html=1;align=center;verticalAlign=middle;whiteSpace=wrap;rounded=0;" parent="1" vertex="1">
          <mxGeometry x="390" y="170" width="60" height="30" as="geometry" />
        </mxCell>
        <mxCell id="-8NUK9hQ9mEakbZkPeLY-49" value="2" style="text;html=1;align=center;verticalAlign=middle;whiteSpace=wrap;rounded=0;" parent="1" vertex="1">
          <mxGeometry x="640" y="185" width="60" height="30" as="geometry" />
        </mxCell>
        <mxCell id="-8NUK9hQ9mEakbZkPeLY-51" value="3" style="text;html=1;align=center;verticalAlign=middle;whiteSpace=wrap;rounded=0;" parent="1" vertex="1">
          <mxGeometry x="413" y="260" width="60" height="30" as="geometry" />
        </mxCell>
        <mxCell id="h45QJ0YhELMhJE3TBwh6-1" value="Return address 3" style="rounded=0;whiteSpace=wrap;html=1;fillColor=#ffcd28;gradientColor=#ffa500;strokeColor=#d79b00;" vertex="1" parent="1">
          <mxGeometry x="470" y="320" width="120" height="40" as="geometry" />
        </mxCell>
        <mxCell id="h45QJ0YhELMhJE3TBwh6-5" value="" style="curved=1;endArrow=classic;html=1;rounded=0;exitX=1;exitY=0.75;exitDx=0;exitDy=0;entryX=1;entryY=0.25;entryDx=0;entryDy=0;" edge="1" parent="1" source="-8NUK9hQ9mEakbZkPeLY-32" target="h45QJ0YhELMhJE3TBwh6-1">
          <mxGeometry width="50" height="50" relative="1" as="geometry">
            <mxPoint x="640" y="310" as="sourcePoint" />
            <mxPoint x="640" y="575" as="targetPoint" />
            <Array as="points">
              <mxPoint x="630" y="260" />
            </Array>
          </mxGeometry>
        </mxCell>
        <mxCell id="h45QJ0YhELMhJE3TBwh6-7" value="4" style="text;html=1;align=center;verticalAlign=middle;whiteSpace=wrap;rounded=0;" vertex="1" parent="1">
          <mxGeometry x="590" y="215" width="60" height="30" as="geometry" />
        </mxCell>
      </root>
    </mxGraphModel>
  </diagram>
</mxfile>
